<mxfile host="app.diagrams.net" modified="2024-02-14T03:58:40.986Z" agent="Mozilla/5.0 (Windows NT 10.0; Win64; x64; rv:122.0) Gecko/20100101 Firefox/122.0" etag="hUly5ZUkMxIZ1yVwuN19" version="23.1.1" type="device" pages="6">
  <diagram name="Login Page" id="p3MCUe8qYNZjNNswOS7o">
    <mxGraphModel dx="1593" dy="829" grid="1" gridSize="10" guides="1" tooltips="1" connect="1" arrows="1" fold="1" page="1" pageScale="1" pageWidth="1169" pageHeight="827" math="0" shadow="0">
      <root>
        <mxCell id="0" />
        <mxCell id="1" parent="0" />
        <mxCell id="Ji1ipeo8drcOaRYKh_ws-2" value="" style="strokeWidth=1;shadow=0;dashed=0;align=center;html=1;shape=mxgraph.mockup.containers.browserWindow;rSize=0;strokeColor=#666666;strokeColor2=#008cff;strokeColor3=#c4c4c4;mainText=,;recursiveResize=0;" vertex="1" parent="1">
          <mxGeometry x="5" y="1" width="1160" height="820" as="geometry" />
        </mxCell>
        <mxCell id="Ji1ipeo8drcOaRYKh_ws-3" value="&lt;div&gt;Login&lt;/div&gt;" style="strokeWidth=1;shadow=0;dashed=0;align=center;html=1;shape=mxgraph.mockup.containers.anchor;fontSize=17;fontColor=#666666;align=left;whiteSpace=wrap;" vertex="1" parent="Ji1ipeo8drcOaRYKh_ws-2">
          <mxGeometry x="60" y="12" width="110" height="26" as="geometry" />
        </mxCell>
        <mxCell id="Ji1ipeo8drcOaRYKh_ws-4" value="https://chatty.c3l.ai/sign-in" style="strokeWidth=1;shadow=0;dashed=0;align=center;html=1;shape=mxgraph.mockup.containers.anchor;rSize=0;fontSize=17;fontColor=#666666;align=left;" vertex="1" parent="Ji1ipeo8drcOaRYKh_ws-2">
          <mxGeometry x="130" y="60" width="250" height="26" as="geometry" />
        </mxCell>
        <mxCell id="Ji1ipeo8drcOaRYKh_ws-5" value="" style="strokeWidth=1;shadow=0;dashed=0;align=center;html=1;shape=mxgraph.mockup.forms.rrect;rSize=0;strokeColor=#999999;fillColor=#ffffff;" vertex="1" parent="Ji1ipeo8drcOaRYKh_ws-2">
          <mxGeometry x="397" y="262" width="365" height="228" as="geometry" />
        </mxCell>
        <mxCell id="Ji1ipeo8drcOaRYKh_ws-6" value="Sign In" style="strokeWidth=1;shadow=0;dashed=0;align=center;html=1;shape=mxgraph.mockup.forms.anchor;fontSize=12;fontColor=#666666;align=left;resizeWidth=1;spacingLeft=0;" vertex="1" parent="Ji1ipeo8drcOaRYKh_ws-5">
          <mxGeometry width="182.5" height="20" relative="1" as="geometry">
            <mxPoint x="10" y="10" as="offset" />
          </mxGeometry>
        </mxCell>
        <mxCell id="Ji1ipeo8drcOaRYKh_ws-7" value="" style="shape=line;strokeColor=#ddeeff;strokeWidth=2;html=1;resizeWidth=1;" vertex="1" parent="Ji1ipeo8drcOaRYKh_ws-5">
          <mxGeometry width="328.5" height="10" relative="1" as="geometry">
            <mxPoint x="10" y="30" as="offset" />
          </mxGeometry>
        </mxCell>
        <mxCell id="Ji1ipeo8drcOaRYKh_ws-8" value="User Name:" style="strokeWidth=1;shadow=0;dashed=0;align=center;html=1;shape=mxgraph.mockup.forms.anchor;fontSize=12;fontColor=#666666;align=left;resizeWidth=1;spacingLeft=0;" vertex="1" parent="Ji1ipeo8drcOaRYKh_ws-5">
          <mxGeometry width="182.5" height="20" relative="1" as="geometry">
            <mxPoint x="10" y="40" as="offset" />
          </mxGeometry>
        </mxCell>
        <mxCell id="Ji1ipeo8drcOaRYKh_ws-9" value="lab.manager@c3l.ai" style="strokeWidth=1;shadow=0;dashed=0;align=center;html=1;shape=mxgraph.mockup.forms.rrect;rSize=0;strokeColor=#999999;fontColor=#666666;align=left;spacingLeft=5;resizeWidth=1;" vertex="1" parent="Ji1ipeo8drcOaRYKh_ws-5">
          <mxGeometry width="273.75" height="25" relative="1" as="geometry">
            <mxPoint x="10" y="60" as="offset" />
          </mxGeometry>
        </mxCell>
        <mxCell id="Ji1ipeo8drcOaRYKh_ws-10" value="Password:" style="strokeWidth=1;shadow=0;dashed=0;align=center;html=1;shape=mxgraph.mockup.forms.anchor;fontSize=12;fontColor=#666666;align=left;resizeWidth=1;spacingLeft=0;" vertex="1" parent="Ji1ipeo8drcOaRYKh_ws-5">
          <mxGeometry width="182.5" height="20" relative="1" as="geometry">
            <mxPoint x="10" y="95" as="offset" />
          </mxGeometry>
        </mxCell>
        <mxCell id="Ji1ipeo8drcOaRYKh_ws-11" value="********" style="strokeWidth=1;shadow=0;dashed=0;align=center;html=1;shape=mxgraph.mockup.forms.rrect;rSize=0;strokeColor=#999999;fontColor=#666666;align=left;spacingLeft=5;resizeWidth=1;" vertex="1" parent="Ji1ipeo8drcOaRYKh_ws-5">
          <mxGeometry width="273.75" height="25" relative="1" as="geometry">
            <mxPoint x="10" y="115" as="offset" />
          </mxGeometry>
        </mxCell>
        <mxCell id="Ji1ipeo8drcOaRYKh_ws-12" value="SIGN IN" style="strokeWidth=1;shadow=0;dashed=0;align=center;html=1;shape=mxgraph.mockup.forms.rrect;rSize=5;strokeColor=none;fontColor=#ffffff;fillColor=#66bbff;fontSize=16;fontStyle=1;" vertex="1" parent="Ji1ipeo8drcOaRYKh_ws-5">
          <mxGeometry y="1" width="80" height="30" relative="1" as="geometry">
            <mxPoint x="12" y="-78" as="offset" />
          </mxGeometry>
        </mxCell>
        <mxCell id="Ji1ipeo8drcOaRYKh_ws-13" value="Forgot Password?" style="strokeWidth=1;shadow=0;dashed=0;align=center;html=1;shape=mxgraph.mockup.forms.anchor;fontSize=12;fontColor=#9999ff;align=left;spacingLeft=0;fontStyle=4;resizeWidth=1;" vertex="1" parent="Ji1ipeo8drcOaRYKh_ws-5">
          <mxGeometry y="1" width="273.75" height="20" relative="1" as="geometry">
            <mxPoint x="10" y="-38" as="offset" />
          </mxGeometry>
        </mxCell>
      </root>
    </mxGraphModel>
  </diagram>
  <diagram name="Home Page" id="8CDc2tlZoQgglCs6F-CI">
    <mxGraphModel dx="1593" dy="829" grid="1" gridSize="10" guides="1" tooltips="1" connect="1" arrows="1" fold="1" page="1" pageScale="1" pageWidth="1169" pageHeight="827" math="0" shadow="0">
      <root>
        <mxCell id="duj6CUQ_XlLZEnSY-t5O-0" />
        <mxCell id="duj6CUQ_XlLZEnSY-t5O-1" parent="duj6CUQ_XlLZEnSY-t5O-0" />
        <mxCell id="duj6CUQ_XlLZEnSY-t5O-2" value="" style="strokeWidth=1;shadow=0;dashed=0;align=center;html=1;shape=mxgraph.mockup.containers.browserWindow;rSize=0;strokeColor=#666666;strokeColor2=#008cff;strokeColor3=#c4c4c4;mainText=,;recursiveResize=0;movable=0;resizable=0;rotatable=0;deletable=0;editable=0;locked=1;connectable=0;" vertex="1" parent="duj6CUQ_XlLZEnSY-t5O-1">
          <mxGeometry x="5" y="1" width="1160" height="820" as="geometry" />
        </mxCell>
        <mxCell id="duj6CUQ_XlLZEnSY-t5O-3" value="Home Page" style="strokeWidth=1;shadow=0;dashed=0;align=center;html=1;shape=mxgraph.mockup.containers.anchor;fontSize=17;fontColor=#666666;align=left;whiteSpace=wrap;" vertex="1" parent="duj6CUQ_XlLZEnSY-t5O-2">
          <mxGeometry x="60" y="12" width="110" height="26" as="geometry" />
        </mxCell>
        <mxCell id="duj6CUQ_XlLZEnSY-t5O-4" value="https://chatty.c3l.ai/home" style="strokeWidth=1;shadow=0;dashed=0;align=center;html=1;shape=mxgraph.mockup.containers.anchor;rSize=0;fontSize=17;fontColor=#666666;align=left;" vertex="1" parent="duj6CUQ_XlLZEnSY-t5O-2">
          <mxGeometry x="130" y="60" width="250" height="26" as="geometry" />
        </mxCell>
        <mxCell id="etsDoJFZKhYHh7m-TRFJ-8" value="" style="verticalLabelPosition=bottom;shadow=0;dashed=0;align=center;html=1;verticalAlign=top;strokeWidth=1;shape=mxgraph.mockup.markup.line;strokeColor=#999999;direction=north;" vertex="1" parent="duj6CUQ_XlLZEnSY-t5O-1">
          <mxGeometry x="440" y="140" width="20" height="650" as="geometry" />
        </mxCell>
        <mxCell id="etsDoJFZKhYHh7m-TRFJ-9" value="" style="strokeWidth=1;shadow=0;dashed=0;align=center;html=1;shape=mxgraph.mockup.forms.rrect;rSize=0;strokeColor=none;fillColor=#ffffff;recursiveResize=0;" vertex="1" parent="duj6CUQ_XlLZEnSY-t5O-1">
          <mxGeometry x="40" y="302" width="250" height="60" as="geometry" />
        </mxCell>
        <mxCell id="etsDoJFZKhYHh7m-TRFJ-10" value="Group A - Helpful Chatbot" style="shape=ellipse;rSize=0;fillColor=#eeeeee;strokeColor=#999999;gradientColor=#cccccc;html=1;align=left;spacingLeft=4;fontSize=17;fontColor=#666666;labelPosition=right;" vertex="1" parent="etsDoJFZKhYHh7m-TRFJ-9">
          <mxGeometry x="8" y="7.5" width="15" height="15" as="geometry" />
        </mxCell>
        <mxCell id="etsDoJFZKhYHh7m-TRFJ-12" value="Group B - Neutral Chatbot" style="shape=ellipse;rSize=0;fillColor=#aaaaaa;strokeColor=#444444;gradientColor=#666666;html=1;align=left;spacingLeft=4;fontSize=17;fontColor=#008cff;labelPosition=right;" vertex="1" parent="etsDoJFZKhYHh7m-TRFJ-9">
          <mxGeometry x="8" y="36.5" width="15" height="15" as="geometry" />
        </mxCell>
        <mxCell id="etsDoJFZKhYHh7m-TRFJ-13" value="" style="shape=ellipse;fillColor=#444444;strokeColor=none;html=1;" vertex="1" parent="etsDoJFZKhYHh7m-TRFJ-12">
          <mxGeometry x="3" y="3" width="9" height="9" as="geometry" />
        </mxCell>
        <mxCell id="etsDoJFZKhYHh7m-TRFJ-15" value="&lt;h2 align=&quot;left&quot;&gt;Setup New Chatbot&lt;/h2&gt;" style="text;html=1;strokeColor=none;fillColor=none;align=left;verticalAlign=middle;whiteSpace=wrap;rounded=0;" vertex="1" parent="duj6CUQ_XlLZEnSY-t5O-1">
          <mxGeometry x="40" y="130" width="195" height="40" as="geometry" />
        </mxCell>
        <mxCell id="etsDoJFZKhYHh7m-TRFJ-16" value="Enter Participant ID..." style="strokeWidth=1;shadow=0;dashed=0;align=center;html=1;shape=mxgraph.mockup.text.textBox;fontColor=#666666;align=left;fontSize=17;spacingLeft=4;spacingTop=-3;whiteSpace=wrap;strokeColor=#666666;mainText=" vertex="1" parent="duj6CUQ_XlLZEnSY-t5O-1">
          <mxGeometry x="40" y="220" width="250" height="30" as="geometry" />
        </mxCell>
        <mxCell id="etsDoJFZKhYHh7m-TRFJ-17" value="&lt;font style=&quot;font-size: 14px;&quot;&gt;Participant ID&lt;/font&gt;:" style="text;html=1;strokeColor=none;fillColor=none;align=left;verticalAlign=middle;whiteSpace=wrap;rounded=0;" vertex="1" parent="duj6CUQ_XlLZEnSY-t5O-1">
          <mxGeometry x="40" y="190" width="134" height="30" as="geometry" />
        </mxCell>
        <mxCell id="etsDoJFZKhYHh7m-TRFJ-20" value="&lt;font style=&quot;font-size: 14px;&quot;&gt;Participant Group&lt;/font&gt;:" style="text;html=1;strokeColor=none;fillColor=none;align=left;verticalAlign=middle;whiteSpace=wrap;rounded=0;" vertex="1" parent="duj6CUQ_XlLZEnSY-t5O-1">
          <mxGeometry x="40" y="270" width="134" height="30" as="geometry" />
        </mxCell>
        <mxCell id="etsDoJFZKhYHh7m-TRFJ-21" value="Start Chatbot" style="strokeWidth=1;shadow=0;dashed=0;align=center;html=1;shape=mxgraph.mockup.buttons.button;strokeColor=#666666;fontColor=#ffffff;mainText=;buttonStyle=round;fontSize=17;fontStyle=1;fillColor=#008cff;whiteSpace=wrap;" vertex="1" parent="duj6CUQ_XlLZEnSY-t5O-1">
          <mxGeometry x="40" y="389" width="150" height="50" as="geometry" />
        </mxCell>
        <mxCell id="etsDoJFZKhYHh7m-TRFJ-23" value="&lt;h2 align=&quot;left&quot;&gt;Chatbot History&lt;br&gt;&lt;/h2&gt;" style="text;html=1;strokeColor=none;fillColor=none;align=left;verticalAlign=middle;whiteSpace=wrap;rounded=0;" vertex="1" parent="duj6CUQ_XlLZEnSY-t5O-1">
          <mxGeometry x="480" y="130" width="195" height="40" as="geometry" />
        </mxCell>
        <mxCell id="etsDoJFZKhYHh7m-TRFJ-24" value="" style="shape=table;html=1;whiteSpace=wrap;startSize=0;container=1;collapsible=0;childLayout=tableLayout;strokeWidth=2;" vertex="1" parent="duj6CUQ_XlLZEnSY-t5O-1">
          <mxGeometry x="480" y="190" width="630" height="210" as="geometry" />
        </mxCell>
        <mxCell id="etsDoJFZKhYHh7m-TRFJ-25" value="" style="shape=tableRow;horizontal=0;startSize=0;swimlaneHead=0;swimlaneBody=0;top=0;left=0;bottom=0;right=0;collapsible=0;dropTarget=0;fillColor=none;points=[[0,0.5],[1,0.5]];portConstraint=eastwest;" vertex="1" parent="etsDoJFZKhYHh7m-TRFJ-24">
          <mxGeometry width="630" height="44" as="geometry" />
        </mxCell>
        <mxCell id="etsDoJFZKhYHh7m-TRFJ-26" value="Participant ID" style="shape=partialRectangle;html=1;whiteSpace=wrap;connectable=0;fillColor=none;top=0;left=0;bottom=0;right=0;overflow=hidden;fontStyle=1" vertex="1" parent="etsDoJFZKhYHh7m-TRFJ-25">
          <mxGeometry width="100" height="44" as="geometry">
            <mxRectangle width="100" height="44" as="alternateBounds" />
          </mxGeometry>
        </mxCell>
        <mxCell id="etsDoJFZKhYHh7m-TRFJ-27" value="Chatbot" style="shape=partialRectangle;html=1;whiteSpace=wrap;connectable=0;fillColor=none;top=0;left=0;bottom=0;right=0;overflow=hidden;fontStyle=1" vertex="1" parent="etsDoJFZKhYHh7m-TRFJ-25">
          <mxGeometry x="100" width="190" height="44" as="geometry">
            <mxRectangle width="190" height="44" as="alternateBounds" />
          </mxGeometry>
        </mxCell>
        <mxCell id="etsDoJFZKhYHh7m-TRFJ-67" value="Started" style="shape=partialRectangle;html=1;whiteSpace=wrap;connectable=0;fillColor=none;top=0;left=0;bottom=0;right=0;overflow=hidden;fontStyle=1" vertex="1" parent="etsDoJFZKhYHh7m-TRFJ-25">
          <mxGeometry x="290" width="120" height="44" as="geometry">
            <mxRectangle width="120" height="44" as="alternateBounds" />
          </mxGeometry>
        </mxCell>
        <mxCell id="etsDoJFZKhYHh7m-TRFJ-72" value="Finished" style="shape=partialRectangle;html=1;whiteSpace=wrap;connectable=0;fillColor=none;top=0;left=0;bottom=0;right=0;overflow=hidden;fontStyle=1" vertex="1" parent="etsDoJFZKhYHh7m-TRFJ-25">
          <mxGeometry x="410" width="130" height="44" as="geometry">
            <mxRectangle width="130" height="44" as="alternateBounds" />
          </mxGeometry>
        </mxCell>
        <mxCell id="etsDoJFZKhYHh7m-TRFJ-42" style="shape=partialRectangle;html=1;whiteSpace=wrap;connectable=0;fillColor=none;top=0;left=0;bottom=0;right=0;overflow=hidden;fontStyle=1" vertex="1" parent="etsDoJFZKhYHh7m-TRFJ-25">
          <mxGeometry x="540" width="90" height="44" as="geometry">
            <mxRectangle width="90" height="44" as="alternateBounds" />
          </mxGeometry>
        </mxCell>
        <mxCell id="etsDoJFZKhYHh7m-TRFJ-28" value="" style="shape=tableRow;horizontal=0;startSize=0;swimlaneHead=0;swimlaneBody=0;top=0;left=0;bottom=0;right=0;collapsible=0;dropTarget=0;fillColor=none;points=[[0,0.5],[1,0.5]];portConstraint=eastwest;" vertex="1" parent="etsDoJFZKhYHh7m-TRFJ-24">
          <mxGeometry y="44" width="630" height="42" as="geometry" />
        </mxCell>
        <mxCell id="etsDoJFZKhYHh7m-TRFJ-29" value="a1834755" style="shape=partialRectangle;html=1;whiteSpace=wrap;connectable=0;fillColor=none;top=0;left=0;bottom=0;right=0;overflow=hidden;" vertex="1" parent="etsDoJFZKhYHh7m-TRFJ-28">
          <mxGeometry width="100" height="42" as="geometry">
            <mxRectangle width="100" height="42" as="alternateBounds" />
          </mxGeometry>
        </mxCell>
        <mxCell id="etsDoJFZKhYHh7m-TRFJ-30" value="Group A - Helpful Chatbot" style="shape=partialRectangle;html=1;whiteSpace=wrap;connectable=0;fillColor=none;top=0;left=0;bottom=0;right=0;overflow=hidden;" vertex="1" parent="etsDoJFZKhYHh7m-TRFJ-28">
          <mxGeometry x="100" width="190" height="42" as="geometry">
            <mxRectangle width="190" height="42" as="alternateBounds" />
          </mxGeometry>
        </mxCell>
        <mxCell id="etsDoJFZKhYHh7m-TRFJ-68" value="&lt;font style=&quot;font-size: 10px;&quot;&gt;2024-02-15 1:20pm&lt;font&gt;&lt;br&gt;&lt;/font&gt;&lt;/font&gt;" style="shape=partialRectangle;html=1;whiteSpace=wrap;connectable=0;fillColor=none;top=0;left=0;bottom=0;right=0;overflow=hidden;" vertex="1" parent="etsDoJFZKhYHh7m-TRFJ-28">
          <mxGeometry x="290" width="120" height="42" as="geometry">
            <mxRectangle width="120" height="42" as="alternateBounds" />
          </mxGeometry>
        </mxCell>
        <mxCell id="etsDoJFZKhYHh7m-TRFJ-73" value="&lt;br&gt;&lt;font style=&quot;font-size: 10px;&quot;&gt;2024-02-15 1:33pm&lt;font&gt;&lt;br&gt;&lt;/font&gt;&lt;/font&gt;&lt;br&gt;" style="shape=partialRectangle;html=1;whiteSpace=wrap;connectable=0;fillColor=none;top=0;left=0;bottom=0;right=0;overflow=hidden;" vertex="1" parent="etsDoJFZKhYHh7m-TRFJ-28">
          <mxGeometry x="410" width="130" height="42" as="geometry">
            <mxRectangle width="130" height="42" as="alternateBounds" />
          </mxGeometry>
        </mxCell>
        <mxCell id="etsDoJFZKhYHh7m-TRFJ-43" style="shape=partialRectangle;html=1;whiteSpace=wrap;connectable=0;fillColor=none;top=0;left=0;bottom=0;right=0;overflow=hidden;" vertex="1" parent="etsDoJFZKhYHh7m-TRFJ-28">
          <mxGeometry x="540" width="90" height="42" as="geometry">
            <mxRectangle width="90" height="42" as="alternateBounds" />
          </mxGeometry>
        </mxCell>
        <mxCell id="etsDoJFZKhYHh7m-TRFJ-31" value="" style="shape=tableRow;horizontal=0;startSize=0;swimlaneHead=0;swimlaneBody=0;top=0;left=0;bottom=0;right=0;collapsible=0;dropTarget=0;fillColor=none;points=[[0,0.5],[1,0.5]];portConstraint=eastwest;" vertex="1" parent="etsDoJFZKhYHh7m-TRFJ-24">
          <mxGeometry y="86" width="630" height="44" as="geometry" />
        </mxCell>
        <mxCell id="etsDoJFZKhYHh7m-TRFJ-32" value="a1359403" style="shape=partialRectangle;html=1;whiteSpace=wrap;connectable=0;fillColor=none;top=0;left=0;bottom=0;right=0;overflow=hidden;" vertex="1" parent="etsDoJFZKhYHh7m-TRFJ-31">
          <mxGeometry width="100" height="44" as="geometry">
            <mxRectangle width="100" height="44" as="alternateBounds" />
          </mxGeometry>
        </mxCell>
        <mxCell id="etsDoJFZKhYHh7m-TRFJ-33" value="Group A - Helpful Chatbot" style="shape=partialRectangle;html=1;whiteSpace=wrap;connectable=0;fillColor=none;top=0;left=0;bottom=0;right=0;overflow=hidden;" vertex="1" parent="etsDoJFZKhYHh7m-TRFJ-31">
          <mxGeometry x="100" width="190" height="44" as="geometry">
            <mxRectangle width="190" height="44" as="alternateBounds" />
          </mxGeometry>
        </mxCell>
        <mxCell id="etsDoJFZKhYHh7m-TRFJ-69" value="&lt;br&gt;&lt;font style=&quot;font-size: 10px;&quot;&gt;2024-02-15 1:35pm&lt;/font&gt;&lt;br&gt;" style="shape=partialRectangle;html=1;whiteSpace=wrap;connectable=0;fillColor=none;top=0;left=0;bottom=0;right=0;overflow=hidden;" vertex="1" parent="etsDoJFZKhYHh7m-TRFJ-31">
          <mxGeometry x="290" width="120" height="44" as="geometry">
            <mxRectangle width="120" height="44" as="alternateBounds" />
          </mxGeometry>
        </mxCell>
        <mxCell id="etsDoJFZKhYHh7m-TRFJ-74" value="&lt;br&gt;&lt;font style=&quot;font-size: 10px;&quot;&gt;2024-02-15 1:40pm&lt;font&gt;&lt;br&gt;&lt;/font&gt;&lt;/font&gt;&lt;br&gt;" style="shape=partialRectangle;html=1;whiteSpace=wrap;connectable=0;fillColor=none;top=0;left=0;bottom=0;right=0;overflow=hidden;" vertex="1" parent="etsDoJFZKhYHh7m-TRFJ-31">
          <mxGeometry x="410" width="130" height="44" as="geometry">
            <mxRectangle width="130" height="44" as="alternateBounds" />
          </mxGeometry>
        </mxCell>
        <mxCell id="etsDoJFZKhYHh7m-TRFJ-44" style="shape=partialRectangle;html=1;whiteSpace=wrap;connectable=0;fillColor=none;top=0;left=0;bottom=0;right=0;overflow=hidden;" vertex="1" parent="etsDoJFZKhYHh7m-TRFJ-31">
          <mxGeometry x="540" width="90" height="44" as="geometry">
            <mxRectangle width="90" height="44" as="alternateBounds" />
          </mxGeometry>
        </mxCell>
        <mxCell id="etsDoJFZKhYHh7m-TRFJ-38" style="shape=tableRow;horizontal=0;startSize=0;swimlaneHead=0;swimlaneBody=0;top=0;left=0;bottom=0;right=0;collapsible=0;dropTarget=0;fillColor=none;points=[[0,0.5],[1,0.5]];portConstraint=eastwest;" vertex="1" parent="etsDoJFZKhYHh7m-TRFJ-24">
          <mxGeometry y="130" width="630" height="40" as="geometry" />
        </mxCell>
        <mxCell id="etsDoJFZKhYHh7m-TRFJ-39" value="a1360540" style="shape=partialRectangle;html=1;whiteSpace=wrap;connectable=0;fillColor=none;top=0;left=0;bottom=0;right=0;overflow=hidden;" vertex="1" parent="etsDoJFZKhYHh7m-TRFJ-38">
          <mxGeometry width="100" height="40" as="geometry">
            <mxRectangle width="100" height="40" as="alternateBounds" />
          </mxGeometry>
        </mxCell>
        <mxCell id="etsDoJFZKhYHh7m-TRFJ-40" value="Group B - Neutral Chatbot" style="shape=partialRectangle;html=1;whiteSpace=wrap;connectable=0;fillColor=none;top=0;left=0;bottom=0;right=0;overflow=hidden;" vertex="1" parent="etsDoJFZKhYHh7m-TRFJ-38">
          <mxGeometry x="100" width="190" height="40" as="geometry">
            <mxRectangle width="190" height="40" as="alternateBounds" />
          </mxGeometry>
        </mxCell>
        <mxCell id="etsDoJFZKhYHh7m-TRFJ-70" value="&lt;br&gt;&lt;font style=&quot;font-size: 10px;&quot;&gt;2024-02-15 1:45pm&lt;font&gt;&lt;br&gt;&lt;/font&gt;&lt;/font&gt;&lt;br&gt;" style="shape=partialRectangle;html=1;whiteSpace=wrap;connectable=0;fillColor=none;top=0;left=0;bottom=0;right=0;overflow=hidden;" vertex="1" parent="etsDoJFZKhYHh7m-TRFJ-38">
          <mxGeometry x="290" width="120" height="40" as="geometry">
            <mxRectangle width="120" height="40" as="alternateBounds" />
          </mxGeometry>
        </mxCell>
        <mxCell id="etsDoJFZKhYHh7m-TRFJ-75" value="&lt;br&gt;&lt;font style=&quot;font-size: 10px;&quot;&gt;2024-02-15 2:00pm&lt;font&gt;&lt;br&gt;&lt;/font&gt;&lt;/font&gt;&lt;br&gt;" style="shape=partialRectangle;html=1;whiteSpace=wrap;connectable=0;fillColor=none;top=0;left=0;bottom=0;right=0;overflow=hidden;" vertex="1" parent="etsDoJFZKhYHh7m-TRFJ-38">
          <mxGeometry x="410" width="130" height="40" as="geometry">
            <mxRectangle width="130" height="40" as="alternateBounds" />
          </mxGeometry>
        </mxCell>
        <mxCell id="etsDoJFZKhYHh7m-TRFJ-45" style="shape=partialRectangle;html=1;whiteSpace=wrap;connectable=0;fillColor=none;top=0;left=0;bottom=0;right=0;overflow=hidden;" vertex="1" parent="etsDoJFZKhYHh7m-TRFJ-38">
          <mxGeometry x="540" width="90" height="40" as="geometry">
            <mxRectangle width="90" height="40" as="alternateBounds" />
          </mxGeometry>
        </mxCell>
        <mxCell id="etsDoJFZKhYHh7m-TRFJ-58" style="shape=tableRow;horizontal=0;startSize=0;swimlaneHead=0;swimlaneBody=0;top=0;left=0;bottom=0;right=0;collapsible=0;dropTarget=0;fillColor=none;points=[[0,0.5],[1,0.5]];portConstraint=eastwest;" vertex="1" parent="etsDoJFZKhYHh7m-TRFJ-24">
          <mxGeometry y="170" width="630" height="40" as="geometry" />
        </mxCell>
        <mxCell id="etsDoJFZKhYHh7m-TRFJ-59" value="a1459032" style="shape=partialRectangle;html=1;whiteSpace=wrap;connectable=0;fillColor=none;top=0;left=0;bottom=0;right=0;overflow=hidden;" vertex="1" parent="etsDoJFZKhYHh7m-TRFJ-58">
          <mxGeometry width="100" height="40" as="geometry">
            <mxRectangle width="100" height="40" as="alternateBounds" />
          </mxGeometry>
        </mxCell>
        <mxCell id="etsDoJFZKhYHh7m-TRFJ-60" value="Group A - Helpful Chatbot" style="shape=partialRectangle;html=1;whiteSpace=wrap;connectable=0;fillColor=none;top=0;left=0;bottom=0;right=0;overflow=hidden;" vertex="1" parent="etsDoJFZKhYHh7m-TRFJ-58">
          <mxGeometry x="100" width="190" height="40" as="geometry">
            <mxRectangle width="190" height="40" as="alternateBounds" />
          </mxGeometry>
        </mxCell>
        <mxCell id="etsDoJFZKhYHh7m-TRFJ-71" value="&lt;br&gt;&lt;font style=&quot;font-size: 10px;&quot;&gt;2024-02-15 2:10pm&lt;font&gt;&lt;br&gt;&lt;/font&gt;&lt;/font&gt;&lt;br&gt;" style="shape=partialRectangle;html=1;whiteSpace=wrap;connectable=0;fillColor=none;top=0;left=0;bottom=0;right=0;overflow=hidden;" vertex="1" parent="etsDoJFZKhYHh7m-TRFJ-58">
          <mxGeometry x="290" width="120" height="40" as="geometry">
            <mxRectangle width="120" height="40" as="alternateBounds" />
          </mxGeometry>
        </mxCell>
        <mxCell id="etsDoJFZKhYHh7m-TRFJ-76" value="&lt;br&gt;&lt;font style=&quot;font-size: 10px;&quot;&gt;2024-02-15 2:23pm&lt;font&gt;&lt;br&gt;&lt;/font&gt;&lt;/font&gt;&lt;br&gt;" style="shape=partialRectangle;html=1;whiteSpace=wrap;connectable=0;fillColor=none;top=0;left=0;bottom=0;right=0;overflow=hidden;" vertex="1" parent="etsDoJFZKhYHh7m-TRFJ-58">
          <mxGeometry x="410" width="130" height="40" as="geometry">
            <mxRectangle width="130" height="40" as="alternateBounds" />
          </mxGeometry>
        </mxCell>
        <mxCell id="etsDoJFZKhYHh7m-TRFJ-61" style="shape=partialRectangle;html=1;whiteSpace=wrap;connectable=0;fillColor=none;top=0;left=0;bottom=0;right=0;overflow=hidden;" vertex="1" parent="etsDoJFZKhYHh7m-TRFJ-58">
          <mxGeometry x="540" width="90" height="40" as="geometry">
            <mxRectangle width="90" height="40" as="alternateBounds" />
          </mxGeometry>
        </mxCell>
        <mxCell id="etsDoJFZKhYHh7m-TRFJ-37" value="" style="verticalLabelPosition=bottom;shadow=0;dashed=0;align=center;html=1;verticalAlign=top;strokeWidth=1;shape=mxgraph.mockup.navigation.scrollBar;barPos=20;fillColor2=#0000000;strokeColor2=none;direction=north;" vertex="1" parent="duj6CUQ_XlLZEnSY-t5O-1">
          <mxGeometry x="1110" y="234" width="20" height="166" as="geometry" />
        </mxCell>
        <mxCell id="etsDoJFZKhYHh7m-TRFJ-41" value="" style="group" vertex="1" connectable="0" parent="duj6CUQ_XlLZEnSY-t5O-1">
          <mxGeometry x="480" y="446" width="290" height="50" as="geometry" />
        </mxCell>
        <mxCell id="etsDoJFZKhYHh7m-TRFJ-35" value="&lt;div align=&quot;left&quot;&gt;&amp;nbsp;&amp;nbsp;&amp;nbsp;&amp;nbsp;&amp;nbsp;&amp;nbsp;&amp;nbsp;&amp;nbsp;&amp;nbsp; Download Chatbot Data&lt;/div&gt;" style="strokeWidth=1;shadow=0;dashed=0;align=left;html=1;shape=mxgraph.mockup.buttons.button;strokeColor=#666666;fontColor=#ffffff;mainText=;buttonStyle=round;fontSize=17;fontStyle=1;fillColor=#008cff;whiteSpace=wrap;" vertex="1" parent="etsDoJFZKhYHh7m-TRFJ-41">
          <mxGeometry width="260" height="50" as="geometry" />
        </mxCell>
        <mxCell id="etsDoJFZKhYHh7m-TRFJ-36" value="" style="shadow=0;dashed=0;html=1;strokeColor=none;fillColor=none;labelPosition=center;verticalLabelPosition=bottom;verticalAlign=top;align=center;outlineConnect=0;shape=mxgraph.veeam.2d.download;" vertex="1" parent="etsDoJFZKhYHh7m-TRFJ-41">
          <mxGeometry x="5.85209003215434" y="6" width="32.60450160771704" height="39" as="geometry" />
        </mxCell>
        <mxCell id="etsDoJFZKhYHh7m-TRFJ-51" value="" style="group" vertex="1" connectable="0" parent="duj6CUQ_XlLZEnSY-t5O-1">
          <mxGeometry x="1029" y="238" width="69" height="33" as="geometry" />
        </mxCell>
        <mxCell id="etsDoJFZKhYHh7m-TRFJ-48" value="&lt;font style=&quot;font-size: 24px;&quot;&gt;X&lt;/font&gt;" style="strokeWidth=1;shadow=0;dashed=0;align=center;html=1;shape=mxgraph.mockup.buttons.button;strokeColor=#666666;fontColor=#ffffff;mainText=;buttonStyle=round;fontSize=17;fontStyle=1;fillColor=#CC0000;whiteSpace=wrap;" vertex="1" parent="etsDoJFZKhYHh7m-TRFJ-51">
          <mxGeometry x="38" width="31" height="33" as="geometry" />
        </mxCell>
        <mxCell id="etsDoJFZKhYHh7m-TRFJ-50" value="" style="html=1;verticalLabelPosition=bottom;align=center;labelBackgroundColor=#ffffff;verticalAlign=top;strokeWidth=2;strokeColor=#0080F0;shadow=0;dashed=0;shape=mxgraph.ios7.icons.compose;" vertex="1" parent="etsDoJFZKhYHh7m-TRFJ-51">
          <mxGeometry y="0.9000000000000057" width="29.099999999999998" height="29.099999999999998" as="geometry" />
        </mxCell>
        <mxCell id="etsDoJFZKhYHh7m-TRFJ-52" value="" style="group" vertex="1" connectable="0" parent="duj6CUQ_XlLZEnSY-t5O-1">
          <mxGeometry x="1030" y="281" width="69" height="33" as="geometry" />
        </mxCell>
        <mxCell id="etsDoJFZKhYHh7m-TRFJ-53" value="&lt;font style=&quot;font-size: 24px;&quot;&gt;X&lt;/font&gt;" style="strokeWidth=1;shadow=0;dashed=0;align=center;html=1;shape=mxgraph.mockup.buttons.button;strokeColor=#666666;fontColor=#ffffff;mainText=;buttonStyle=round;fontSize=17;fontStyle=1;fillColor=#CC0000;whiteSpace=wrap;" vertex="1" parent="etsDoJFZKhYHh7m-TRFJ-52">
          <mxGeometry x="38" width="31" height="33" as="geometry" />
        </mxCell>
        <mxCell id="etsDoJFZKhYHh7m-TRFJ-54" value="" style="html=1;verticalLabelPosition=bottom;align=center;labelBackgroundColor=#ffffff;verticalAlign=top;strokeWidth=2;strokeColor=#0080F0;shadow=0;dashed=0;shape=mxgraph.ios7.icons.compose;" vertex="1" parent="etsDoJFZKhYHh7m-TRFJ-52">
          <mxGeometry y="0.9000000000000057" width="29.099999999999998" height="29.099999999999998" as="geometry" />
        </mxCell>
        <mxCell id="etsDoJFZKhYHh7m-TRFJ-55" value="" style="group" vertex="1" connectable="0" parent="duj6CUQ_XlLZEnSY-t5O-1">
          <mxGeometry x="1030" y="323" width="69" height="33" as="geometry" />
        </mxCell>
        <mxCell id="etsDoJFZKhYHh7m-TRFJ-56" value="&lt;font style=&quot;font-size: 24px;&quot;&gt;X&lt;/font&gt;" style="strokeWidth=1;shadow=0;dashed=0;align=center;html=1;shape=mxgraph.mockup.buttons.button;strokeColor=#666666;fontColor=#ffffff;mainText=;buttonStyle=round;fontSize=17;fontStyle=1;fillColor=#CC0000;whiteSpace=wrap;" vertex="1" parent="etsDoJFZKhYHh7m-TRFJ-55">
          <mxGeometry x="38" width="31" height="33" as="geometry" />
        </mxCell>
        <mxCell id="etsDoJFZKhYHh7m-TRFJ-57" value="" style="html=1;verticalLabelPosition=bottom;align=center;labelBackgroundColor=#ffffff;verticalAlign=top;strokeWidth=2;strokeColor=#0080F0;shadow=0;dashed=0;shape=mxgraph.ios7.icons.compose;" vertex="1" parent="etsDoJFZKhYHh7m-TRFJ-55">
          <mxGeometry y="0.9000000000000057" width="29.099999999999998" height="29.099999999999998" as="geometry" />
        </mxCell>
        <mxCell id="etsDoJFZKhYHh7m-TRFJ-78" value="" style="group" vertex="1" connectable="0" parent="duj6CUQ_XlLZEnSY-t5O-1">
          <mxGeometry x="1030" y="363" width="69" height="33" as="geometry" />
        </mxCell>
        <mxCell id="etsDoJFZKhYHh7m-TRFJ-79" value="&lt;font style=&quot;font-size: 24px;&quot;&gt;X&lt;/font&gt;" style="strokeWidth=1;shadow=0;dashed=0;align=center;html=1;shape=mxgraph.mockup.buttons.button;strokeColor=#666666;fontColor=#ffffff;mainText=;buttonStyle=round;fontSize=17;fontStyle=1;fillColor=#CC0000;whiteSpace=wrap;" vertex="1" parent="etsDoJFZKhYHh7m-TRFJ-78">
          <mxGeometry x="38" width="31" height="33" as="geometry" />
        </mxCell>
        <mxCell id="etsDoJFZKhYHh7m-TRFJ-80" value="" style="html=1;verticalLabelPosition=bottom;align=center;labelBackgroundColor=#ffffff;verticalAlign=top;strokeWidth=2;strokeColor=#0080F0;shadow=0;dashed=0;shape=mxgraph.ios7.icons.compose;" vertex="1" parent="etsDoJFZKhYHh7m-TRFJ-78">
          <mxGeometry y="0.9000000000000057" width="29.099999999999998" height="29.099999999999998" as="geometry" />
        </mxCell>
      </root>
    </mxGraphModel>
  </diagram>
  <diagram name="Chatbot A" id="UezkA2953YN0ZIjwd2hq">
    <mxGraphModel dx="1593" dy="829" grid="1" gridSize="10" guides="1" tooltips="1" connect="1" arrows="1" fold="1" page="1" pageScale="1" pageWidth="1169" pageHeight="827" math="0" shadow="0">
      <root>
        <mxCell id="dcFnGe5jCc8ZDs7W5Zbu-0" />
        <mxCell id="dcFnGe5jCc8ZDs7W5Zbu-1" parent="dcFnGe5jCc8ZDs7W5Zbu-0" />
        <mxCell id="dcFnGe5jCc8ZDs7W5Zbu-2" value="" style="strokeWidth=1;shadow=0;dashed=0;align=center;html=1;shape=mxgraph.mockup.containers.browserWindow;rSize=0;strokeColor=#666666;strokeColor2=#008cff;strokeColor3=#c4c4c4;mainText=,;recursiveResize=0;movable=0;resizable=0;rotatable=0;deletable=0;editable=0;locked=1;connectable=0;" vertex="1" parent="dcFnGe5jCc8ZDs7W5Zbu-1">
          <mxGeometry x="5" y="1" width="1160" height="820" as="geometry" />
        </mxCell>
        <mxCell id="dcFnGe5jCc8ZDs7W5Zbu-3" value="Chatty" style="strokeWidth=1;shadow=0;dashed=0;align=center;html=1;shape=mxgraph.mockup.containers.anchor;fontSize=17;fontColor=#666666;align=left;whiteSpace=wrap;" vertex="1" parent="dcFnGe5jCc8ZDs7W5Zbu-2">
          <mxGeometry x="60" y="12" width="110" height="26" as="geometry" />
        </mxCell>
        <mxCell id="dcFnGe5jCc8ZDs7W5Zbu-4" value="https://chatty.c3l.ai/chatbot/&amp;lt;participant_id&amp;gt;" style="strokeWidth=1;shadow=0;dashed=0;align=center;html=1;shape=mxgraph.mockup.containers.anchor;rSize=0;fontSize=17;fontColor=#666666;align=left;" vertex="1" parent="dcFnGe5jCc8ZDs7W5Zbu-2">
          <mxGeometry x="130" y="60" width="350" height="26" as="geometry" />
        </mxCell>
        <mxCell id="EYSSepA_7FZctgGwArWe-0" value="" style="verticalLabelPosition=bottom;shadow=0;dashed=0;align=center;html=1;verticalAlign=top;strokeWidth=1;shape=mxgraph.mockup.containers.userMale;strokeColor=#666666;strokeColor2=#008cff;" vertex="1" parent="dcFnGe5jCc8ZDs7W5Zbu-1">
          <mxGeometry x="530" y="140" width="100" height="100" as="geometry" />
        </mxCell>
        <mxCell id="EYSSepA_7FZctgGwArWe-1" value="" style="rounded=0;whiteSpace=wrap;html=1;" vertex="1" parent="dcFnGe5jCc8ZDs7W5Zbu-1">
          <mxGeometry x="242" y="251" width="685" height="530" as="geometry" />
        </mxCell>
        <mxCell id="EYSSepA_7FZctgGwArWe-2" value="" style="verticalLabelPosition=bottom;shadow=0;dashed=0;align=center;html=1;verticalAlign=top;strokeWidth=1;shape=mxgraph.mockup.navigation.scrollBar;barPos=2.578;fillColor2=#0000000;strokeColor2=none;direction=north;" vertex="1" parent="dcFnGe5jCc8ZDs7W5Zbu-1">
          <mxGeometry x="927" y="251" width="20" height="470" as="geometry" />
        </mxCell>
        <mxCell id="EYSSepA_7FZctgGwArWe-3" value="Complete test..." style="strokeWidth=1;shadow=0;dashed=0;align=center;html=1;shape=mxgraph.mockup.buttons.button;strokeColor=#666666;fontColor=#ffffff;mainText=;buttonStyle=round;fontSize=17;fontStyle=1;fillColor=#009900;whiteSpace=wrap;" vertex="1" parent="dcFnGe5jCc8ZDs7W5Zbu-1">
          <mxGeometry x="797" y="180" width="150" height="50" as="geometry" />
        </mxCell>
        <mxCell id="EYSSepA_7FZctgGwArWe-4" value="" style="rounded=0;whiteSpace=wrap;html=1;" vertex="1" parent="dcFnGe5jCc8ZDs7W5Zbu-1">
          <mxGeometry x="242" y="721" width="685" height="60" as="geometry" />
        </mxCell>
        <mxCell id="EYSSepA_7FZctgGwArWe-5" value="&lt;div align=&quot;center&quot;&gt;Yes&lt;/div&gt;" style="rounded=1;whiteSpace=wrap;html=1;align=center;spacingLeft=0;spacing=0;spacingBottom=0;fillColor=#f5f5f5;strokeColor=#666666;fontColor=#333333;fontSize=16;" vertex="1" parent="dcFnGe5jCc8ZDs7W5Zbu-1">
          <mxGeometry x="710" y="731" width="90" height="40" as="geometry" />
        </mxCell>
        <mxCell id="EYSSepA_7FZctgGwArWe-6" value="No" style="rounded=1;whiteSpace=wrap;html=1;align=center;spacingLeft=0;spacing=0;spacingBottom=0;fillColor=#f5f5f5;strokeColor=#666666;fontColor=#333333;fontSize=16;" vertex="1" parent="dcFnGe5jCc8ZDs7W5Zbu-1">
          <mxGeometry x="820" y="731" width="90" height="40" as="geometry" />
        </mxCell>
        <mxCell id="EYSSepA_7FZctgGwArWe-7" value="&lt;div align=&quot;left&quot; style=&quot;font-size: 16px;&quot;&gt;Hi there, I’m Chatty the Chatbot. I’ll be here to keep you company throughout your test&lt;span style=&quot;font-size: 16px;&quot;&gt; and provide some extra support.&lt;/span&gt;&lt;/div&gt;" style="rounded=1;whiteSpace=wrap;html=1;align=left;spacingLeft=10;spacing=0;spacingBottom=0;fillColor=#0066CC;strokeColor=#6c8ebf;fontColor=#FFFFFF;fontSize=16;" vertex="1" parent="dcFnGe5jCc8ZDs7W5Zbu-1">
          <mxGeometry x="270" y="542" width="395" height="80" as="geometry" />
        </mxCell>
        <mxCell id="EYSSepA_7FZctgGwArWe-8" value="Would you like to hear some strategies to help you with your test?" style="rounded=1;whiteSpace=wrap;html=1;align=left;spacingLeft=10;spacing=0;spacingBottom=0;fillColor=#0066CC;strokeColor=#6c8ebf;fontColor=#FFFFFF;fontSize=16;" vertex="1" parent="dcFnGe5jCc8ZDs7W5Zbu-1">
          <mxGeometry x="270" y="631" width="395" height="61" as="geometry" />
        </mxCell>
      </root>
    </mxGraphModel>
  </diagram>
  <diagram name="Chatbot A - Yes" id="IOJsBYQ14lYncEqQnt-O">
    <mxGraphModel dx="1593" dy="829" grid="1" gridSize="10" guides="1" tooltips="1" connect="1" arrows="1" fold="1" page="1" pageScale="1" pageWidth="1169" pageHeight="827" math="0" shadow="0">
      <root>
        <mxCell id="5LpBcaRPf-cxKqO2eTWi-0" />
        <mxCell id="5LpBcaRPf-cxKqO2eTWi-1" parent="5LpBcaRPf-cxKqO2eTWi-0" />
        <mxCell id="5LpBcaRPf-cxKqO2eTWi-2" value="" style="strokeWidth=1;shadow=0;dashed=0;align=center;html=1;shape=mxgraph.mockup.containers.browserWindow;rSize=0;strokeColor=#666666;strokeColor2=#008cff;strokeColor3=#c4c4c4;mainText=,;recursiveResize=0;movable=0;resizable=0;rotatable=0;deletable=0;editable=0;locked=1;connectable=0;" vertex="1" parent="5LpBcaRPf-cxKqO2eTWi-1">
          <mxGeometry x="5" y="1" width="1160" height="820" as="geometry" />
        </mxCell>
        <mxCell id="5LpBcaRPf-cxKqO2eTWi-3" value="Chatty" style="strokeWidth=1;shadow=0;dashed=0;align=center;html=1;shape=mxgraph.mockup.containers.anchor;fontSize=17;fontColor=#666666;align=left;whiteSpace=wrap;" vertex="1" parent="5LpBcaRPf-cxKqO2eTWi-2">
          <mxGeometry x="60" y="12" width="110" height="26" as="geometry" />
        </mxCell>
        <mxCell id="5LpBcaRPf-cxKqO2eTWi-4" value="https://chatty.c3l.ai/chatbot/&amp;lt;participant_id&amp;gt;" style="strokeWidth=1;shadow=0;dashed=0;align=center;html=1;shape=mxgraph.mockup.containers.anchor;rSize=0;fontSize=17;fontColor=#666666;align=left;" vertex="1" parent="5LpBcaRPf-cxKqO2eTWi-2">
          <mxGeometry x="130" y="60" width="350" height="26" as="geometry" />
        </mxCell>
        <mxCell id="Q69SMiAcmCI-eSa0m18t-0" value="" style="verticalLabelPosition=bottom;shadow=0;dashed=0;align=center;html=1;verticalAlign=top;strokeWidth=1;shape=mxgraph.mockup.containers.userMale;strokeColor=#666666;strokeColor2=#008cff;" vertex="1" parent="5LpBcaRPf-cxKqO2eTWi-1">
          <mxGeometry x="530" y="140" width="100" height="100" as="geometry" />
        </mxCell>
        <mxCell id="Q69SMiAcmCI-eSa0m18t-1" value="" style="rounded=0;whiteSpace=wrap;html=1;" vertex="1" parent="5LpBcaRPf-cxKqO2eTWi-1">
          <mxGeometry x="242" y="251" width="685" height="530" as="geometry" />
        </mxCell>
        <mxCell id="Q69SMiAcmCI-eSa0m18t-2" value="" style="verticalLabelPosition=bottom;shadow=0;dashed=0;align=center;html=1;verticalAlign=top;strokeWidth=1;shape=mxgraph.mockup.navigation.scrollBar;barPos=2.578;fillColor2=#0000000;strokeColor2=none;direction=north;" vertex="1" parent="5LpBcaRPf-cxKqO2eTWi-1">
          <mxGeometry x="927" y="251" width="20" height="470" as="geometry" />
        </mxCell>
        <mxCell id="Q69SMiAcmCI-eSa0m18t-3" value="&lt;div align=&quot;left&quot; style=&quot;font-size: 16px;&quot;&gt;Hi there, I’m Chatty the Chatbot. I’ll be here to keep you company throughout your test&lt;span style=&quot;font-size: 16px;&quot;&gt; and provide some extra support.&lt;/span&gt;&lt;/div&gt;" style="rounded=1;whiteSpace=wrap;html=1;align=left;spacingLeft=10;spacing=0;spacingBottom=0;fillColor=#0066CC;strokeColor=#6c8ebf;fontColor=#FFFFFF;fontSize=16;" vertex="1" parent="5LpBcaRPf-cxKqO2eTWi-1">
          <mxGeometry x="270" y="265" width="395" height="80" as="geometry" />
        </mxCell>
        <mxCell id="Q69SMiAcmCI-eSa0m18t-5" value="Would you like to hear some strategies to help you with your test?" style="rounded=1;whiteSpace=wrap;html=1;align=left;spacingLeft=10;spacing=0;spacingBottom=0;fillColor=#0066CC;strokeColor=#6c8ebf;fontColor=#FFFFFF;fontSize=16;" vertex="1" parent="5LpBcaRPf-cxKqO2eTWi-1">
          <mxGeometry x="270" y="354" width="395" height="61" as="geometry" />
        </mxCell>
        <mxCell id="Q69SMiAcmCI-eSa0m18t-6" value="" style="rounded=0;whiteSpace=wrap;html=1;" vertex="1" parent="5LpBcaRPf-cxKqO2eTWi-1">
          <mxGeometry x="242" y="721" width="685" height="60" as="geometry" />
        </mxCell>
        <mxCell id="Q69SMiAcmCI-eSa0m18t-7" value="&lt;div align=&quot;center&quot;&gt;Yes&lt;/div&gt;" style="rounded=1;whiteSpace=wrap;html=1;align=center;spacingLeft=0;spacing=0;spacingBottom=0;fillColor=#f5f5f5;strokeColor=#666666;fontColor=#333333;fontSize=16;" vertex="1" parent="5LpBcaRPf-cxKqO2eTWi-1">
          <mxGeometry x="710" y="731" width="90" height="40" as="geometry" />
        </mxCell>
        <mxCell id="Q69SMiAcmCI-eSa0m18t-8" value="No" style="rounded=1;whiteSpace=wrap;html=1;align=center;spacingLeft=0;spacing=0;spacingBottom=0;fillColor=#f5f5f5;strokeColor=#666666;fontColor=#333333;fontSize=16;" vertex="1" parent="5LpBcaRPf-cxKqO2eTWi-1">
          <mxGeometry x="820" y="731" width="90" height="40" as="geometry" />
        </mxCell>
        <mxCell id="Q69SMiAcmCI-eSa0m18t-9" value="&lt;div align=&quot;center&quot;&gt;Yes&lt;/div&gt;" style="rounded=1;whiteSpace=wrap;html=1;align=center;spacingLeft=0;spacing=0;spacingBottom=0;fillColor=#f5f5f5;strokeColor=#666666;fontColor=#333333;fontSize=16;" vertex="1" parent="5LpBcaRPf-cxKqO2eTWi-1">
          <mxGeometry x="820" y="448.5" width="90" height="40" as="geometry" />
        </mxCell>
        <mxCell id="Q69SMiAcmCI-eSa0m18t-10" value="Taking a maths test can be a stressful and anxiety-provoking task for many people. Research suggests that deep breathing can help reduce these feelings of stress or anxiety. Try slowly inhaling through your nose and exhaling through your mouth 10 times before returning to the exercise." style="rounded=1;whiteSpace=wrap;html=1;align=left;spacingLeft=10;spacing=0;spacingBottom=0;fillColor=#0066CC;strokeColor=#6c8ebf;fontColor=#FFFFFF;fontSize=16;" vertex="1" parent="5LpBcaRPf-cxKqO2eTWi-1">
          <mxGeometry x="270" y="507" width="395" height="140" as="geometry" />
        </mxCell>
        <mxCell id="Q69SMiAcmCI-eSa0m18t-11" value="Would you like to hear another strategy?" style="rounded=1;whiteSpace=wrap;html=1;align=left;spacingLeft=10;spacing=0;spacingBottom=0;fillColor=#0066CC;strokeColor=#6c8ebf;fontColor=#FFFFFF;fontSize=16;" vertex="1" parent="5LpBcaRPf-cxKqO2eTWi-1">
          <mxGeometry x="270" y="660" width="395" height="41" as="geometry" />
        </mxCell>
        <mxCell id="sKWSisNepfKsGjeuW6E_-0" value="Complete test..." style="strokeWidth=1;shadow=0;dashed=0;align=center;html=1;shape=mxgraph.mockup.buttons.button;strokeColor=#666666;fontColor=#ffffff;mainText=;buttonStyle=round;fontSize=17;fontStyle=1;fillColor=#009900;whiteSpace=wrap;" vertex="1" parent="5LpBcaRPf-cxKqO2eTWi-1">
          <mxGeometry x="797" y="180" width="150" height="50" as="geometry" />
        </mxCell>
      </root>
    </mxGraphModel>
  </diagram>
  <diagram name="Chatbot A - No" id="U6dfq9oKAWByy_j2cKp7">
    <mxGraphModel dx="1593" dy="829" grid="1" gridSize="10" guides="1" tooltips="1" connect="1" arrows="1" fold="1" page="1" pageScale="1" pageWidth="1169" pageHeight="827" math="0" shadow="0">
      <root>
        <mxCell id="yx3ErYu20oqJhMod2fUp-0" />
        <mxCell id="yx3ErYu20oqJhMod2fUp-1" parent="yx3ErYu20oqJhMod2fUp-0" />
        <mxCell id="yx3ErYu20oqJhMod2fUp-2" value="" style="strokeWidth=1;shadow=0;dashed=0;align=center;html=1;shape=mxgraph.mockup.containers.browserWindow;rSize=0;strokeColor=#666666;strokeColor2=#008cff;strokeColor3=#c4c4c4;mainText=,;recursiveResize=0;movable=0;resizable=0;rotatable=0;deletable=0;editable=0;locked=1;connectable=0;" vertex="1" parent="yx3ErYu20oqJhMod2fUp-1">
          <mxGeometry x="5" y="1" width="1160" height="820" as="geometry" />
        </mxCell>
        <mxCell id="yx3ErYu20oqJhMod2fUp-3" value="Chatty" style="strokeWidth=1;shadow=0;dashed=0;align=center;html=1;shape=mxgraph.mockup.containers.anchor;fontSize=17;fontColor=#666666;align=left;whiteSpace=wrap;" vertex="1" parent="yx3ErYu20oqJhMod2fUp-2">
          <mxGeometry x="60" y="12" width="110" height="26" as="geometry" />
        </mxCell>
        <mxCell id="yx3ErYu20oqJhMod2fUp-4" value="https://chatty.c3l.ai/chatbot/&amp;lt;participant_id&amp;gt;" style="strokeWidth=1;shadow=0;dashed=0;align=center;html=1;shape=mxgraph.mockup.containers.anchor;rSize=0;fontSize=17;fontColor=#666666;align=left;" vertex="1" parent="yx3ErYu20oqJhMod2fUp-2">
          <mxGeometry x="130" y="60" width="350" height="26" as="geometry" />
        </mxCell>
        <mxCell id="wOAtjYSfx2c60F9_8DE9-0" value="" style="verticalLabelPosition=bottom;shadow=0;dashed=0;align=center;html=1;verticalAlign=top;strokeWidth=1;shape=mxgraph.mockup.containers.userMale;strokeColor=#666666;strokeColor2=#008cff;" vertex="1" parent="yx3ErYu20oqJhMod2fUp-1">
          <mxGeometry x="530" y="140" width="100" height="100" as="geometry" />
        </mxCell>
        <mxCell id="wOAtjYSfx2c60F9_8DE9-1" value="" style="rounded=0;whiteSpace=wrap;html=1;" vertex="1" parent="yx3ErYu20oqJhMod2fUp-1">
          <mxGeometry x="242" y="251" width="685" height="530" as="geometry" />
        </mxCell>
        <mxCell id="wOAtjYSfx2c60F9_8DE9-2" value="" style="verticalLabelPosition=bottom;shadow=0;dashed=0;align=center;html=1;verticalAlign=top;strokeWidth=1;shape=mxgraph.mockup.navigation.scrollBar;barPos=2.578;fillColor2=#0000000;strokeColor2=none;direction=north;" vertex="1" parent="yx3ErYu20oqJhMod2fUp-1">
          <mxGeometry x="927" y="251" width="20" height="470" as="geometry" />
        </mxCell>
        <mxCell id="wOAtjYSfx2c60F9_8DE9-4" value="" style="rounded=0;whiteSpace=wrap;html=1;" vertex="1" parent="yx3ErYu20oqJhMod2fUp-1">
          <mxGeometry x="242" y="721" width="685" height="60" as="geometry" />
        </mxCell>
        <mxCell id="wOAtjYSfx2c60F9_8DE9-6" value="I would like another strategy" style="rounded=1;whiteSpace=wrap;html=1;align=center;spacingLeft=0;spacing=0;spacingBottom=0;fillColor=#f5f5f5;strokeColor=#666666;fontColor=#333333;fontSize=16;" vertex="1" parent="yx3ErYu20oqJhMod2fUp-1">
          <mxGeometry x="680" y="731" width="230" height="40" as="geometry" />
        </mxCell>
        <mxCell id="wOAtjYSfx2c60F9_8DE9-7" value="&lt;div align=&quot;center&quot;&gt;Yes&lt;/div&gt;" style="rounded=1;whiteSpace=wrap;html=1;align=center;spacingLeft=0;spacing=0;spacingBottom=0;fillColor=#f5f5f5;strokeColor=#666666;fontColor=#333333;fontSize=16;" vertex="1" parent="yx3ErYu20oqJhMod2fUp-1">
          <mxGeometry x="820" y="333.5" width="90" height="40" as="geometry" />
        </mxCell>
        <mxCell id="wOAtjYSfx2c60F9_8DE9-8" value="Taking a maths test can be a stressful and anxiety-provoking task for many people. Research suggests that deep breathing can help reduce these feelings of stress or anxiety. Try slowly inhaling through your nose and exhaling through your mouth 10 times before returning to the exercise." style="rounded=1;whiteSpace=wrap;html=1;align=left;spacingLeft=10;spacing=0;spacingBottom=0;fillColor=#0066CC;strokeColor=#6c8ebf;fontColor=#FFFFFF;fontSize=16;" vertex="1" parent="yx3ErYu20oqJhMod2fUp-1">
          <mxGeometry x="270" y="392" width="395" height="140" as="geometry" />
        </mxCell>
        <mxCell id="wOAtjYSfx2c60F9_8DE9-9" value="Would you like to hear another strategy?" style="rounded=1;whiteSpace=wrap;html=1;align=left;spacingLeft=10;spacing=0;spacingBottom=0;fillColor=#0066CC;strokeColor=#6c8ebf;fontColor=#FFFFFF;fontSize=16;" vertex="1" parent="yx3ErYu20oqJhMod2fUp-1">
          <mxGeometry x="270" y="545" width="395" height="41" as="geometry" />
        </mxCell>
        <mxCell id="LqtlCrG9YjeDmq60fX4m-0" value="&lt;div align=&quot;center&quot;&gt;No&lt;/div&gt;" style="rounded=1;whiteSpace=wrap;html=1;align=center;spacingLeft=0;spacing=0;spacingBottom=0;fillColor=#f5f5f5;strokeColor=#666666;fontColor=#333333;fontSize=16;" vertex="1" parent="yx3ErYu20oqJhMod2fUp-1">
          <mxGeometry x="820" y="593" width="90" height="40" as="geometry" />
        </mxCell>
        <mxCell id="LqtlCrG9YjeDmq60fX4m-2" value="Sounds like you&#39;ve got this covered! Just let me know if you&#39;d like to hear more." style="rounded=1;whiteSpace=wrap;html=1;align=left;spacingLeft=10;spacing=0;spacingBottom=0;fillColor=#0066CC;strokeColor=#6c8ebf;fontColor=#FFFFFF;fontSize=16;" vertex="1" parent="yx3ErYu20oqJhMod2fUp-1">
          <mxGeometry x="270" y="643" width="395" height="54" as="geometry" />
        </mxCell>
        <mxCell id="z1xF7KBXIwWDVnWUIM3c-0" value="Would you like to hear some strategies to help you with your test?" style="rounded=1;whiteSpace=wrap;html=1;align=left;spacingLeft=10;spacing=0;spacingBottom=0;fillColor=#0066CC;strokeColor=#6c8ebf;fontColor=#FFFFFF;fontSize=16;" vertex="1" parent="yx3ErYu20oqJhMod2fUp-1">
          <mxGeometry x="270" y="260" width="395" height="61" as="geometry" />
        </mxCell>
        <mxCell id="eL-W7tPgBIECwdqJ63s--0" value="Complete test..." style="strokeWidth=1;shadow=0;dashed=0;align=center;html=1;shape=mxgraph.mockup.buttons.button;strokeColor=#666666;fontColor=#ffffff;mainText=;buttonStyle=round;fontSize=17;fontStyle=1;fillColor=#009900;whiteSpace=wrap;" vertex="1" parent="yx3ErYu20oqJhMod2fUp-1">
          <mxGeometry x="797" y="180" width="150" height="50" as="geometry" />
        </mxCell>
      </root>
    </mxGraphModel>
  </diagram>
  <diagram name="Chatbot A - Finish" id="iWZw_3F84RrHuhOY1IMh">
    <mxGraphModel dx="1593" dy="829" grid="1" gridSize="10" guides="1" tooltips="1" connect="1" arrows="1" fold="1" page="1" pageScale="1" pageWidth="1169" pageHeight="827" math="0" shadow="0">
      <root>
        <mxCell id="J5gbJjeyniQXseEBM6sF-0" />
        <mxCell id="J5gbJjeyniQXseEBM6sF-1" parent="J5gbJjeyniQXseEBM6sF-0" />
        <mxCell id="J5gbJjeyniQXseEBM6sF-2" value="" style="strokeWidth=1;shadow=0;dashed=0;align=center;html=1;shape=mxgraph.mockup.containers.browserWindow;rSize=0;strokeColor=#666666;strokeColor2=#008cff;strokeColor3=#c4c4c4;mainText=,;recursiveResize=0;movable=0;resizable=0;rotatable=0;deletable=0;editable=0;locked=1;connectable=0;" vertex="1" parent="J5gbJjeyniQXseEBM6sF-1">
          <mxGeometry x="5" y="1" width="1160" height="820" as="geometry" />
        </mxCell>
        <mxCell id="J5gbJjeyniQXseEBM6sF-3" value="Chatty" style="strokeWidth=1;shadow=0;dashed=0;align=center;html=1;shape=mxgraph.mockup.containers.anchor;fontSize=17;fontColor=#666666;align=left;whiteSpace=wrap;" vertex="1" parent="J5gbJjeyniQXseEBM6sF-2">
          <mxGeometry x="60" y="12" width="110" height="26" as="geometry" />
        </mxCell>
        <mxCell id="J5gbJjeyniQXseEBM6sF-4" value="https://chatty.c3l.ai/chatbot/&amp;lt;participant_id&amp;gt;" style="strokeWidth=1;shadow=0;dashed=0;align=center;html=1;shape=mxgraph.mockup.containers.anchor;rSize=0;fontSize=17;fontColor=#666666;align=left;" vertex="1" parent="J5gbJjeyniQXseEBM6sF-2">
          <mxGeometry x="130" y="60" width="350" height="26" as="geometry" />
        </mxCell>
        <mxCell id="J5gbJjeyniQXseEBM6sF-5" value="" style="verticalLabelPosition=bottom;shadow=0;dashed=0;align=center;html=1;verticalAlign=top;strokeWidth=1;shape=mxgraph.mockup.containers.userMale;strokeColor=#666666;strokeColor2=#008cff;opacity=20;textOpacity=20;" vertex="1" parent="J5gbJjeyniQXseEBM6sF-1">
          <mxGeometry x="530" y="140" width="100" height="100" as="geometry" />
        </mxCell>
        <mxCell id="J5gbJjeyniQXseEBM6sF-6" value="" style="rounded=0;whiteSpace=wrap;html=1;opacity=20;textOpacity=20;" vertex="1" parent="J5gbJjeyniQXseEBM6sF-1">
          <mxGeometry x="242" y="251" width="685" height="530" as="geometry" />
        </mxCell>
        <mxCell id="J5gbJjeyniQXseEBM6sF-7" value="" style="verticalLabelPosition=bottom;shadow=0;dashed=0;align=center;html=1;verticalAlign=top;strokeWidth=1;shape=mxgraph.mockup.navigation.scrollBar;barPos=2.578;fillColor2=#0000000;strokeColor2=none;direction=north;opacity=20;textOpacity=20;" vertex="1" parent="J5gbJjeyniQXseEBM6sF-1">
          <mxGeometry x="927" y="251" width="20" height="470" as="geometry" />
        </mxCell>
        <mxCell id="J5gbJjeyniQXseEBM6sF-8" value="Finish test..." style="strokeWidth=1;shadow=0;dashed=0;align=center;html=1;shape=mxgraph.mockup.buttons.button;strokeColor=#666666;fontColor=#ffffff;mainText=;buttonStyle=round;fontSize=17;fontStyle=1;fillColor=#009900;whiteSpace=wrap;opacity=20;textOpacity=20;" vertex="1" parent="J5gbJjeyniQXseEBM6sF-1">
          <mxGeometry x="797" y="180" width="150" height="50" as="geometry" />
        </mxCell>
        <mxCell id="J5gbJjeyniQXseEBM6sF-9" value="" style="rounded=0;whiteSpace=wrap;html=1;opacity=20;textOpacity=20;" vertex="1" parent="J5gbJjeyniQXseEBM6sF-1">
          <mxGeometry x="242" y="721" width="685" height="60" as="geometry" />
        </mxCell>
        <mxCell id="J5gbJjeyniQXseEBM6sF-10" value="I would like another strategy" style="rounded=1;whiteSpace=wrap;html=1;align=center;spacingLeft=0;spacing=0;spacingBottom=0;fillColor=#f5f5f5;strokeColor=#666666;fontColor=#333333;fontSize=16;opacity=20;labelBorderColor=none;labelBackgroundColor=none;textOpacity=20;" vertex="1" parent="J5gbJjeyniQXseEBM6sF-1">
          <mxGeometry x="680" y="731" width="230" height="40" as="geometry" />
        </mxCell>
        <mxCell id="J5gbJjeyniQXseEBM6sF-11" value="&lt;div align=&quot;center&quot;&gt;Yes&lt;/div&gt;" style="rounded=1;whiteSpace=wrap;html=1;align=center;spacingLeft=0;spacing=0;spacingBottom=0;fillColor=#f5f5f5;strokeColor=#666666;fontColor=#333333;fontSize=16;opacity=20;labelBorderColor=none;labelBackgroundColor=none;textOpacity=20;" vertex="1" parent="J5gbJjeyniQXseEBM6sF-1">
          <mxGeometry x="820" y="333.5" width="90" height="40" as="geometry" />
        </mxCell>
        <mxCell id="J5gbJjeyniQXseEBM6sF-12" value="Taking a maths test can be a stressful and anxiety-provoking task for many people. Research suggests that deep breathing can help reduce these feelings of stress or anxiety. Try slowly inhaling through your nose and exhaling through your mouth 10 times before returning to the exercise." style="rounded=1;whiteSpace=wrap;html=1;align=left;spacingLeft=10;spacing=0;spacingBottom=0;fillColor=#0066CC;strokeColor=#6c8ebf;fontColor=#FFFFFF;fontSize=16;opacity=20;textOpacity=20;" vertex="1" parent="J5gbJjeyniQXseEBM6sF-1">
          <mxGeometry x="270" y="392" width="395" height="140" as="geometry" />
        </mxCell>
        <mxCell id="J5gbJjeyniQXseEBM6sF-13" value="Would you like to hear another strategy?" style="rounded=1;whiteSpace=wrap;html=1;align=left;spacingLeft=10;spacing=0;spacingBottom=0;fillColor=#0066CC;strokeColor=#6c8ebf;fontColor=#FFFFFF;fontSize=16;opacity=20;textOpacity=20;" vertex="1" parent="J5gbJjeyniQXseEBM6sF-1">
          <mxGeometry x="270" y="545" width="395" height="41" as="geometry" />
        </mxCell>
        <mxCell id="J5gbJjeyniQXseEBM6sF-14" value="&lt;div align=&quot;center&quot;&gt;No&lt;/div&gt;" style="rounded=1;whiteSpace=wrap;html=1;align=center;spacingLeft=0;spacing=0;spacingBottom=0;fillColor=#f5f5f5;strokeColor=#666666;fontColor=#333333;fontSize=16;opacity=20;labelBorderColor=none;labelBackgroundColor=none;textOpacity=20;" vertex="1" parent="J5gbJjeyniQXseEBM6sF-1">
          <mxGeometry x="820" y="593" width="90" height="40" as="geometry" />
        </mxCell>
        <mxCell id="J5gbJjeyniQXseEBM6sF-15" value="Sounds like you&#39;ve got this covered! Just let me know if you&#39;d like to hear more." style="rounded=1;whiteSpace=wrap;html=1;align=left;spacingLeft=10;spacing=0;spacingBottom=0;fillColor=#0066CC;strokeColor=#6c8ebf;fontColor=#FFFFFF;fontSize=16;opacity=20;textOpacity=20;" vertex="1" parent="J5gbJjeyniQXseEBM6sF-1">
          <mxGeometry x="270" y="643" width="395" height="54" as="geometry" />
        </mxCell>
        <mxCell id="J5gbJjeyniQXseEBM6sF-16" value="Would you like to hear some strategies to help you with your test?" style="rounded=1;whiteSpace=wrap;html=1;align=left;spacingLeft=10;spacing=0;spacingBottom=0;fillColor=#0066CC;strokeColor=#6c8ebf;fontColor=#FFFFFF;fontSize=16;opacity=20;textOpacity=20;" vertex="1" parent="J5gbJjeyniQXseEBM6sF-1">
          <mxGeometry x="270" y="260" width="395" height="61" as="geometry" />
        </mxCell>
        <mxCell id="SMl3MFktblCwWAs_cl5d-10" value="If you have completed your test, please click &lt;b&gt;Yes&lt;/b&gt; to save your responses and sign out." style="strokeWidth=1;shadow=0;dashed=0;align=center;html=1;shape=mxgraph.mockup.containers.rrect;rSize=0;strokeColor=#666666;fontColor=#666666;fontSize=17;verticalAlign=top;whiteSpace=wrap;fillColor=#ffffff;spacingTop=32;spacingLeft=2;spacingRight=2;" vertex="1" parent="J5gbJjeyniQXseEBM6sF-1">
          <mxGeometry x="440" y="410" width="290" height="150" as="geometry" />
        </mxCell>
        <mxCell id="SMl3MFktblCwWAs_cl5d-11" value="Complete test?" style="strokeWidth=1;shadow=0;dashed=0;align=center;html=1;shape=mxgraph.mockup.containers.rrect;rSize=0;fontSize=17;fontColor=#666666;strokeColor=#666666;align=left;spacingLeft=8;fillColor=none;resizeWidth=1;whiteSpace=wrap;" vertex="1" parent="SMl3MFktblCwWAs_cl5d-10">
          <mxGeometry width="290" height="30" relative="1" as="geometry" />
        </mxCell>
        <mxCell id="SMl3MFktblCwWAs_cl5d-12" value="" style="shape=ellipse;strokeColor=#008cff;resizable=0;fillColor=none;html=1;" vertex="1" parent="SMl3MFktblCwWAs_cl5d-11">
          <mxGeometry x="1" y="0.5" width="20" height="20" relative="1" as="geometry">
            <mxPoint x="-25" y="-10" as="offset" />
          </mxGeometry>
        </mxCell>
        <mxCell id="SMl3MFktblCwWAs_cl5d-13" value="Cancel" style="strokeWidth=1;shadow=0;dashed=0;align=center;html=1;shape=mxgraph.mockup.containers.rrect;rSize=0;fontSize=16;fontColor=#666666;strokeColor=#c4c4c4;whiteSpace=wrap;fillColor=none;fontStyle=1" vertex="1" parent="SMl3MFktblCwWAs_cl5d-10">
          <mxGeometry x="0.25" y="1" width="90" height="25" relative="1" as="geometry">
            <mxPoint x="-45" y="-33" as="offset" />
          </mxGeometry>
        </mxCell>
        <mxCell id="SMl3MFktblCwWAs_cl5d-14" value="Yes" style="strokeWidth=1;shadow=0;dashed=0;align=center;html=1;shape=mxgraph.mockup.containers.rrect;rSize=0;fontSize=16;fontColor=#666666;strokeColor=#c4c4c4;whiteSpace=wrap;fillColor=none;fontStyle=1" vertex="1" parent="SMl3MFktblCwWAs_cl5d-10">
          <mxGeometry x="0.75" y="1" width="90" height="25" relative="1" as="geometry">
            <mxPoint x="-45" y="-33" as="offset" />
          </mxGeometry>
        </mxCell>
      </root>
    </mxGraphModel>
  </diagram>
</mxfile>
